<svg width="24" height="24" viewBox="0 0 24 24" fill="none" xmlns="http://www.w3.org/2000/svg">
<path fill-rule="evenodd" clip-rule="evenodd" d="M8.05063 4.60376C8.33185 4.32808 8.50633 3.94391 8.50633 3.51899C8.50633 2.68007 7.82626 2 6.98734 2C6.14843 2 5.46835 2.68007 5.46835 3.51899C5.46835 3.94391 5.64283 4.32808 5.92405 4.60376V6.25316H5.16456C2.31225 6.25316 0 8.56541 0 11.4177V14.4557C0 17.308 2.31225 19.6203 5.16456 19.6203H18.8354C21.6877 19.6203 24 17.308 24 14.4557V11.4177C24 8.56541 21.6877 6.25316 18.8354 6.25316H18.0759V4.60376C18.3572 4.32808 18.5316 3.94391 18.5316 3.51899C18.5316 2.68007 17.8516 2 17.0127 2C16.1737 2 15.4937 2.68007 15.4937 3.51899C15.4937 3.94391 15.6681 4.32808 15.9494 4.60376V6.25316H8.05063V4.60376ZM5.16456 8.68354H18.8354C20.3455 8.68354 21.5696 9.90768 21.5696 11.4177V14.4557C21.5696 15.9657 20.3455 17.1899 18.8354 17.1899H5.16456C3.65451 17.1899 2.43038 15.9657 2.43038 14.4557V11.4177C2.43038 9.90768 3.65451 8.68354 5.16456 8.68354Z" fill="#001D6C"/>
<path fill-rule="evenodd" clip-rule="evenodd" d="M4.55701 12.7848C4.55701 11.3587 5.71313 10.2026 7.13928 10.2026H16.8608C18.287 10.2026 19.4431 11.3587 19.4431 12.7848C19.4431 14.211 18.287 15.3671 16.8608 15.3671H7.13928C5.71313 15.3671 4.55701 14.211 4.55701 12.7848ZM7.44308 14.4557C8.36589 14.4557 9.11397 13.7076 9.11397 12.7848C9.11397 11.862 8.36589 11.114 7.44308 11.114C6.52028 11.114 5.7722 11.862 5.7722 12.7848C5.7722 13.7076 6.52028 14.4557 7.44308 14.4557ZM16.557 14.4557C17.4798 14.4557 18.2279 13.7076 18.2279 12.7848C18.2279 11.862 17.4798 11.114 16.557 11.114C15.6342 11.114 14.8861 11.862 14.8861 12.7848C14.8861 13.7076 15.6342 14.4557 16.557 14.4557Z" fill="#0072C3"/>
</svg>
