<svg width="48" height="48" viewBox="0 0 48 48" fill="none" xmlns="http://www.w3.org/2000/svg">
<path fill-rule="evenodd" clip-rule="evenodd" d="M17.4177 11.6729C17.8864 11.2135 18.1772 10.5732 18.1772 9.86499C18.1772 8.4668 17.0438 7.33334 15.6456 7.33334C14.2474 7.33334 13.1139 8.4668 13.1139 9.86499C13.1139 10.5732 13.4047 11.2135 13.8734 11.6729V14.422H12.6076C7.85375 14.422 4 18.2757 4 23.0295V28.0928C4 32.8467 7.85375 36.7004 12.6076 36.7004H35.3924C40.1462 36.7004 44 32.8467 44 28.0928V23.0295C44 18.2757 40.1462 14.422 35.3924 14.422H34.1266V11.6729C34.5953 11.2135 34.8861 10.5732 34.8861 9.86499C34.8861 8.4668 33.7526 7.33334 32.3544 7.33334C30.9562 7.33334 29.8228 8.4668 29.8228 9.86499C29.8228 10.5732 30.1136 11.2135 30.5823 11.6729V14.422H17.4177V11.6729ZM12.6076 18.4726H35.3924C37.9091 18.4726 39.9494 20.5128 39.9494 23.0295V28.0928C39.9494 30.6096 37.9091 32.6498 35.3924 32.6498H12.6076C10.0909 32.6498 8.05063 30.6096 8.05063 28.0928V23.0295C8.05063 20.5128 10.0909 18.4726 12.6076 18.4726Z" fill="#001D6C"/>
<path fill-rule="evenodd" clip-rule="evenodd" d="M11.5949 25.3081C11.5949 22.9311 13.5218 21.0043 15.8987 21.0043H32.1013C34.4782 21.0043 36.4051 22.9311 36.4051 25.3081C36.4051 27.685 34.4782 29.6119 32.1013 29.6119H15.8987C13.5218 29.6119 11.5949 27.685 11.5949 25.3081ZM16.4051 28.0929C17.9431 28.0929 19.1899 26.8461 19.1899 25.3081C19.1899 23.7701 17.9431 22.5233 16.4051 22.5233C14.8671 22.5233 13.6203 23.7701 13.6203 25.3081C13.6203 26.8461 14.8671 28.0929 16.4051 28.0929ZM31.5949 28.0929C33.133 28.0929 34.3798 26.8461 34.3798 25.3081C34.3798 23.7701 33.133 22.5233 31.5949 22.5233C30.0569 22.5233 28.8101 23.7701 28.8101 25.3081C28.8101 26.8461 30.0569 28.0929 31.5949 28.0929Z" fill="#0072C3"/>
</svg>
